<svg width="26" height="25" viewBox="0 0 26 25" fill="none" xmlns="http://www.w3.org/2000/svg">
<path d="M25.792 19.292L25.844 19.032L23.088 18.538C23.998 17.238 24.726 15.652 24.804 13.858C24.856 12.48 24.518 11.076 23.894 9.776C24.57 8.45 25.48 6.084 25.194 3.172C25.064 1.898 24.752 0.832 24.414 0C23.322 0.208 21.736 0.65 20.072 1.586C18.876 2.236 17.94 2.99 17.264 3.64C15.912 3.094 14.456 2.782 12.974 2.782C11.466 2.782 10.01 3.094 8.684 3.64C7.982 2.99 7.046 2.262 5.876 1.586C4.108 0.65 2.548 0.234 1.456 0C1.118 0.832 0.78 1.898 0.676 3.172C0.39 6.084 1.3 8.45 1.976 9.776C1.352 11.102 1.014 12.506 1.066 13.858C1.144 15.652 1.846 17.238 2.782 18.538L0 19.058L0.052 19.318L2.938 18.798C3.224 19.188 3.536 19.552 3.848 19.916L1.404 21.034L1.508 21.268L4.03 20.098C4.342 20.41 4.654 20.722 4.94 20.982L2.106 23.322L2.262 23.504L5.148 21.138C5.954 21.84 6.656 22.334 6.994 22.568C8.216 23.426 10.244 24.83 12.922 24.934C15.6 24.804 17.628 23.426 18.85 22.568C19.188 22.334 19.89 21.84 20.696 21.138L23.582 23.504L23.738 23.296L20.904 20.956C21.19 20.696 21.502 20.384 21.814 20.072L24.336 21.242L24.44 21.008L21.996 19.89C22.308 19.552 22.62 19.188 22.906 18.772L25.792 19.292ZM20.488 3.198C21.528 2.652 22.464 2.392 23.14 2.288C23.348 2.756 23.556 3.38 23.634 4.134C23.816 5.85 23.244 7.228 22.828 7.982C21.788 6.552 20.41 5.304 18.798 4.394C19.214 4.004 19.76 3.588 20.488 3.198ZM2.21 4.134C2.288 3.406 2.496 2.782 2.704 2.288C3.38 2.418 4.342 2.652 5.356 3.198C6.084 3.588 6.63 4.004 7.046 4.368C5.434 5.278 4.056 6.552 3.016 7.956C2.6 7.228 2.054 5.824 2.21 4.134ZM7.566 13.858C5.642 13.26 4.862 11.648 4.732 11.388C5.122 11.076 5.954 10.53 7.046 10.504C8.71 10.478 10.322 11.622 11.128 13.416C10.894 13.572 9.386 14.404 7.566 13.858ZM13.65 18.07C13.39 18.408 13.13 18.668 12.922 18.85C12.714 18.72 12.402 18.46 12.142 18.07C11.934 17.758 11.804 17.472 11.752 17.264C12.064 17.186 12.454 17.108 12.948 17.108C13.26 17.108 13.676 17.134 14.144 17.264C14.014 17.498 13.884 17.784 13.65 18.07ZM18.798 10.53C19.916 10.556 20.722 11.102 21.112 11.414C21.008 11.674 20.202 13.286 18.278 13.858C16.432 14.404 14.95 13.598 14.69 13.442C15.522 11.622 17.134 10.478 18.798 10.53Z" fill="#212227"/>
</svg>
